<?xml version="1.0" encoding="UTF-8" ?>
<!DOCTYPE svg PUBLIC "-//W3C//DTD SVG 1.1//EN" "http://www.w3.org/Graphics/SVG/1.1/DTD/svg11.dtd">
<svg width="856pt" height="1280pt" viewBox="0 0 856 1280" version="1.1" xmlns="http://www.w3.org/2000/svg">
<g id="#1c8b06fd">
<path fill="#1c8b06" opacity="1.00" d=" M 0.00 0.00 L 856.00 0.00 L 856.00 959.34 C 847.40 980.40 837.47 1001.26 822.97 1018.97 C 807.85 1039.27 790.56 1057.89 771.18 1074.17 C 754.88 1087.51 739.52 1101.98 722.71 1114.70 C 668.08 1157.59 609.76 1195.82 548.48 1228.52 C 515.71 1245.28 482.61 1261.51 448.51 1275.40 C 444.20 1277.14 439.79 1278.64 435.34 1280.00 L 418.54 1280.00 C 395.48 1271.76 374.00 1259.80 352.14 1248.91 C 335.48 1240.75 319.30 1231.66 302.84 1223.10 C 287.08 1214.89 272.17 1205.17 256.90 1196.12 C 196.35 1159.93 139.03 1118.40 85.43 1072.56 C 62.29 1052.07 38.63 1031.30 22.27 1004.74 C 14.17 991.64 6.13 978.41 0.00 964.25 L 0.00 0.00 M 29.24 50.32 C 28.64 322.87 29.24 595.44 28.94 868.00 C 28.58 887.56 31.14 907.09 35.97 926.02 C 42.50 952.31 56.14 976.17 72.44 997.58 C 80.72 1007.56 89.79 1016.89 99.22 1025.78 C 130.98 1053.97 163.84 1081.01 198.70 1105.32 C 221.80 1122.13 245.07 1138.80 269.74 1153.28 C 317.89 1183.10 367.90 1209.83 419.13 1233.93 C 426.39 1237.76 434.96 1235.14 442.03 1232.09 C 474.58 1217.59 506.80 1202.28 537.99 1185.02 C 572.35 1167.01 604.32 1144.95 636.75 1123.76 C 668.00 1102.48 697.91 1079.26 726.55 1054.58 C 739.49 1044.27 751.52 1032.88 762.76 1020.76 C 779.21 1004.23 793.17 985.20 802.90 963.96 C 817.03 937.17 824.14 907.13 825.90 877.00 C 826.08 862.99 824.87 849.01 824.98 835.00 C 825.01 573.34 825.01 311.68 824.99 50.01 C 576.66 49.98 328.33 50.01 80.00 50.00 C 63.08 49.96 46.16 49.84 29.24 50.32 Z" />
<path fill="#1c8b06" opacity="1.00" d=" M 361.59 94.56 C 375.91 84.60 394.05 82.82 411.04 83.75 C 421.18 83.81 430.58 88.00 439.93 91.43 C 441.40 89.69 442.84 87.92 444.31 86.16 C 447.96 86.12 455.27 86.05 458.92 86.01 C 463.99 103.92 469.14 121.81 473.82 139.82 C 467.24 141.64 460.69 143.56 454.09 145.27 C 446.03 132.18 438.18 117.41 423.82 110.27 C 413.45 106.33 400.99 105.46 391.09 111.16 C 380.68 116.38 374.27 127.11 370.69 137.81 C 364.72 159.78 369.13 185.14 385.00 202.01 C 393.52 211.16 406.59 215.10 418.86 213.78 C 430.88 211.33 441.50 204.61 450.60 196.62 C 455.17 192.52 458.40 187.16 463.02 183.13 C 468.51 185.97 473.82 189.62 478.03 194.19 C 477.39 199.14 473.07 202.52 470.37 206.35 C 460.76 218.36 448.21 228.17 433.80 233.70 C 412.05 241.31 386.30 242.07 366.06 229.88 C 342.41 216.63 326.61 190.23 326.90 163.01 C 325.14 136.17 338.60 108.75 361.59 94.56 Z" />
<path fill="#1c8b06" opacity="1.00" d=" M 565.40 83.41 C 593.98 80.47 624.86 92.73 640.78 117.23 C 656.67 143.45 657.66 178.86 640.86 204.90 C 632.62 219.37 618.27 229.45 602.67 234.62 C 586.09 239.44 568.37 240.76 551.36 237.55 C 532.22 233.29 513.90 222.59 503.04 205.95 C 495.24 194.52 492.22 180.56 491.19 166.97 C 488.53 139.67 501.20 110.42 525.00 96.02 C 536.94 88.11 551.28 84.59 565.40 83.41 M 568.44 107.42 C 560.41 107.76 552.93 111.73 547.49 117.51 C 535.90 130.65 531.66 148.85 532.91 166.02 C 532.89 183.82 539.51 204.09 556.64 212.37 C 571.68 220.52 592.13 214.34 600.98 199.99 C 611.33 185.25 612.37 166.15 610.30 148.84 C 608.67 136.07 604.22 122.54 593.63 114.41 C 586.76 108.55 577.32 106.10 568.44 107.42 Z" />
<path fill="#1c8b06" opacity="1.00" d=" M 718.03 84.15 C 729.44 83.10 741.49 82.95 752.13 87.81 C 755.88 89.15 759.40 91.80 763.52 91.66 C 765.23 90.16 766.49 88.26 767.85 86.45 C 772.86 86.26 777.89 86.08 782.94 85.90 C 786.95 102.64 791.92 119.16 795.31 136.05 C 788.99 138.14 782.66 140.14 776.27 142.00 C 767.61 128.59 757.33 114.59 741.43 109.41 C 732.40 107.25 722.25 105.23 713.49 109.40 C 709.52 111.58 705.42 115.18 705.09 120.00 C 705.43 124.25 708.82 127.47 711.74 130.24 C 722.32 137.18 735.03 139.43 746.94 143.13 C 760.80 147.28 775.39 150.77 786.82 160.22 C 805.21 173.72 806.66 203.74 790.72 219.72 C 776.72 236.43 753.06 240.61 732.39 238.62 C 720.42 238.00 710.09 231.48 699.47 226.66 C 697.87 230.05 696.26 233.43 694.69 236.84 C 690.93 236.92 683.40 237.08 679.64 237.17 C 675.12 217.69 671.74 197.95 668.84 178.17 C 675.14 176.70 681.43 175.16 687.77 173.84 C 693.13 183.52 698.75 193.45 707.16 200.84 C 720.42 212.59 739.37 219.82 756.89 213.89 C 763.76 211.92 770.05 204.53 767.95 197.12 C 766.51 190.91 760.48 187.51 755.18 184.91 C 734.18 176.36 710.87 173.53 691.22 161.76 C 670.64 151.18 665.48 120.63 680.33 103.31 C 689.80 92.40 703.53 85.12 718.03 84.15 Z" />
<path fill="#1c8b06" opacity="1.00" d=" M 73.57 85.97 C 97.72 86.01 121.87 85.97 146.02 86.01 C 145.99 92.42 145.96 98.83 145.92 105.25 C 140.65 106.30 134.73 105.87 130.16 109.13 C 126.75 124.47 128.35 140.41 127.97 156.00 C 128.36 173.00 127.05 190.10 128.86 207.04 C 129.32 209.46 129.00 214.73 132.66 215.23 C 137.18 215.88 141.77 215.98 146.33 216.24 C 146.52 222.82 146.58 229.42 146.45 236.01 C 122.29 236.15 98.10 235.58 73.95 236.52 C 73.96 229.85 73.98 223.19 74.03 216.53 C 79.31 215.89 88.99 218.04 90.48 210.59 C 91.85 180.76 90.52 150.85 91.13 120.98 C 91.02 116.52 91.76 109.63 86.74 107.29 C 82.28 105.77 77.41 106.22 72.78 105.64 C 73.08 99.08 73.24 92.53 73.57 85.97 Z" />
<path fill="#1c8b06" opacity="1.00" d=" M 162.98 86.03 C 183.02 85.96 203.06 86.00 223.11 85.96 C 239.64 114.10 251.66 144.71 268.45 172.71 C 269.19 155.81 269.29 138.89 268.96 121.98 C 268.48 117.71 269.15 112.35 266.20 108.80 C 261.92 105.59 256.00 106.47 251.08 105.34 C 251.03 98.90 251.00 92.46 250.98 86.02 C 271.41 85.97 291.84 85.97 312.27 86.02 C 312.36 92.50 312.35 98.99 312.16 105.47 C 306.63 106.59 295.27 105.08 294.50 113.40 C 293.07 154.47 294.72 195.62 293.78 236.72 C 283.62 236.96 273.46 236.99 263.31 236.93 C 244.15 200.67 227.01 163.35 207.62 127.23 C 206.53 154.80 206.92 182.43 207.09 210.01 C 208.62 217.83 218.93 215.37 224.68 216.52 C 224.81 222.97 224.92 229.42 225.06 235.88 C 204.40 236.84 183.67 237.94 163.01 236.24 C 163.00 229.67 163.00 223.10 163.01 216.54 C 168.77 216.25 179.40 217.65 180.36 209.37 C 181.93 180.96 180.55 152.43 181.07 123.98 C 180.44 119.16 182.06 113.31 178.81 109.16 C 174.35 105.73 168.29 106.39 163.08 105.25 C 163.03 98.84 163.00 92.43 162.98 86.03 Z" />
<path fill="#1c8b06" opacity="1.00" d=" M 420.44 258.54 C 436.77 254.34 453.96 268.30 454.29 284.88 C 456.91 301.59 442.09 318.37 425.01 317.02 C 411.72 316.91 399.75 305.79 398.40 292.62 C 394.74 277.77 405.64 261.37 420.44 258.54 Z" />
<path fill="#1c8b06" opacity="1.00" d=" M 558.98 308.15 C 621.96 307.22 684.99 309.23 747.95 307.12 C 747.20 312.28 748.89 318.65 744.72 322.74 C 738.44 331.33 726.65 331.84 717.03 331.99 C 677.01 332.10 636.99 331.96 596.98 331.92 C 591.67 331.90 585.70 331.95 581.25 335.29 C 577.40 338.62 579.14 345.34 583.18 347.79 C 588.80 351.07 595.72 350.61 601.97 351.01 C 638.48 351.20 675.00 350.72 711.51 351.15 C 707.92 356.51 705.04 362.91 698.97 365.93 C 691.47 371.21 681.70 370.31 673.05 370.66 C 639.05 369.30 605.01 370.38 571.00 369.88 C 562.62 370.10 553.71 368.99 545.95 372.92 C 542.03 374.98 539.54 380.57 542.60 384.37 C 546.57 389.63 554.28 388.53 559.97 389.00 C 597.85 389.19 635.74 388.75 673.62 389.12 C 670.81 396.71 665.56 403.66 658.02 407.01 C 649.70 409.96 640.72 409.94 632.01 410.07 C 593.66 410.10 555.31 409.78 516.97 410.08 C 511.89 409.62 505.33 411.33 503.72 416.84 C 501.95 420.48 504.76 424.40 508.01 425.98 C 514.11 429.15 521.34 428.52 527.98 428.98 C 563.91 429.23 599.85 428.68 635.79 429.18 C 631.27 438.53 623.24 447.93 612.02 448.02 C 583.08 450.44 553.99 448.50 525.00 447.98 C 446.67 448.02 368.33 447.98 290.00 448.00 C 273.05 447.72 255.94 450.85 239.14 447.75 C 229.55 445.36 222.51 437.87 218.35 429.25 C 257.85 428.51 297.39 429.44 336.89 428.86 C 342.63 429.01 347.50 426.15 352.07 423.08 C 351.20 418.49 350.25 411.65 344.60 410.52 C 299.43 409.07 254.18 410.66 208.98 409.87 C 196.95 408.68 184.40 401.81 180.80 389.53 C 221.19 388.21 261.63 389.50 302.03 388.96 C 306.43 388.86 310.09 386.11 313.72 383.95 C 312.67 380.94 313.77 376.43 310.84 374.15 C 303.84 369.39 295.04 370.08 287.01 369.90 C 247.48 370.12 207.93 369.75 168.40 370.38 C 156.72 369.95 147.93 360.77 142.67 351.12 C 179.46 350.81 216.24 351.10 253.02 351.05 C 259.07 350.88 265.61 351.37 270.98 347.97 C 275.65 345.96 276.70 338.51 272.50 335.48 C 268.49 331.39 262.18 332.34 257.03 331.98 C 218.68 331.96 180.33 331.97 141.99 332.11 C 134.92 332.12 127.52 332.14 120.99 328.99 C 113.65 325.39 108.14 318.84 104.20 311.82 C 103.51 309.76 106.07 309.22 107.47 308.59 C 118.94 307.40 130.49 308.05 142.00 307.97 C 192.00 308.03 242.01 308.02 292.01 307.94 C 303.28 307.39 314.43 310.04 324.83 314.19 C 340.94 320.93 353.58 334.36 360.98 350.01 C 365.33 358.40 367.88 368.31 375.90 374.13 C 379.67 377.31 385.20 377.48 389.63 375.62 C 396.63 372.73 403.36 369.22 410.46 366.57 C 405.62 361.76 398.23 357.24 400.08 349.14 C 403.74 339.51 413.71 333.26 423.61 331.56 C 431.12 329.81 438.58 333.31 444.68 337.36 C 449.79 341.36 456.28 346.47 455.01 353.96 C 453.61 358.33 449.48 361.03 446.46 364.26 C 454.08 370.41 462.73 376.40 472.87 376.86 C 482.60 375.41 485.90 364.53 490.23 357.23 C 496.87 342.93 505.36 328.64 518.97 319.96 C 530.59 311.77 545.03 308.97 558.98 308.15 Z" />
<path fill="#1c8b06" opacity="1.00" d=" M 174.89 480.90 C 188.53 479.27 202.30 480.11 216.00 479.98 C 366.01 480.03 516.01 479.98 666.02 480.00 C 684.62 478.66 701.71 488.85 714.18 501.82 C 727.62 516.38 734.07 536.35 733.93 555.98 C 734.17 592.65 733.92 629.32 733.99 666.00 C 721.99 666.00 710.00 666.00 698.01 666.00 C 697.81 630.67 698.29 595.34 697.87 560.02 C 696.91 551.79 696.18 542.86 690.85 536.11 C 685.00 526.33 673.37 520.75 662.03 522.02 C 505.35 521.91 348.66 522.14 191.98 521.91 C 172.35 518.79 155.04 537.97 156.10 556.96 C 155.96 588.30 155.43 619.67 156.92 650.99 C 156.77 710.02 159.34 769.01 158.93 828.04 C 158.54 831.81 159.34 835.62 161.00 839.00 C 173.38 864.98 190.36 888.39 208.08 910.94 C 215.17 919.78 222.19 928.73 230.21 936.79 C 241.07 947.94 251.26 959.71 262.28 970.71 C 279.20 986.79 295.95 1003.06 313.18 1018.82 C 345.58 1046.50 379.23 1072.79 414.92 1096.11 C 420.07 1098.99 424.56 1104.15 430.97 1103.96 C 436.13 1102.24 440.63 1099.04 445.26 1096.29 C 465.42 1083.23 485.98 1070.71 504.89 1055.84 C 524.88 1039.94 544.61 1023.68 563.60 1006.59 C 582.99 989.35 600.83 970.49 618.69 951.70 C 639.75 928.43 661.32 905.00 676.01 877.01 C 682.44 865.38 686.59 852.69 692.85 840.98 C 706.95 842.07 721.07 843.18 735.01 845.68 C 729.89 859.18 725.21 872.88 718.80 885.85 C 703.56 918.30 680.81 946.48 656.91 972.92 C 644.41 986.73 632.56 1001.20 618.80 1013.80 C 589.80 1043.65 558.23 1070.94 525.01 1095.97 C 500.03 1113.63 474.66 1130.76 448.37 1146.41 C 440.87 1150.68 431.96 1152.73 423.38 1151.51 C 415.21 1149.33 408.19 1144.23 401.04 1139.93 C 360.25 1112.37 320.01 1083.67 283.66 1050.36 C 261.91 1031.84 241.64 1011.71 221.93 991.07 C 195.25 961.78 166.70 933.46 147.49 898.42 C 137.24 881.85 130.45 863.52 123.87 845.29 C 120.80 800.33 122.78 755.19 121.61 710.16 C 120.15 683.79 121.95 657.35 120.15 631.00 C 118.62 606.47 119.14 581.88 118.54 557.33 C 118.16 540.23 123.45 523.14 133.15 509.11 C 142.43 494.57 158.05 484.32 174.89 480.90 Z" />
<path fill="#1c8b06" opacity="1.00" d=" M 407.01 544.98 C 419.23 544.93 431.46 544.94 443.69 545.27 C 444.44 590.50 443.74 635.75 444.04 681.00 C 444.11 693.97 444.19 706.96 443.36 719.92 C 431.19 716.12 419.12 712.01 406.97 708.17 C 407.04 653.77 406.97 599.38 407.01 544.98 Z" />
<path fill="#1c8b06" opacity="1.00" d=" M 213.17 571.15 C 226.27 565.54 241.00 565.99 254.99 565.15 C 301.32 564.77 347.65 565.11 393.99 565.00 C 394.02 579.08 394.05 593.16 393.99 607.24 C 355.02 608.96 315.99 607.53 277.00 608.03 C 262.20 608.67 247.36 605.88 232.62 607.62 C 229.62 609.06 224.81 610.47 224.64 614.40 C 223.30 628.82 222.31 643.34 223.27 657.81 C 224.93 662.76 230.69 664.21 235.01 665.98 C 263.56 673.81 291.50 683.67 319.83 692.24 C 414.90 723.73 510.58 753.33 605.84 784.23 C 616.20 788.28 630.60 788.66 635.95 800.13 C 643.94 817.53 633.38 835.89 621.49 848.49 C 573.34 904.71 525.83 961.47 477.85 1017.84 C 470.58 1026.63 463.26 1035.40 455.44 1043.73 C 454.89 1026.80 454.77 1009.87 454.92 992.95 C 453.44 985.42 459.66 980.10 463.67 974.69 C 488.22 945.55 512.73 916.38 537.06 887.06 C 554.47 865.75 572.97 845.30 589.26 823.09 C 551.12 809.93 512.30 798.87 474.11 785.86 C 452.73 779.15 431.57 771.79 410.29 764.77 C 402.49 762.23 394.93 758.94 386.89 757.17 C 370.20 753.43 354.24 747.22 338.00 742.00 C 308.97 732.68 279.86 723.61 250.90 714.11 C 235.21 708.52 218.48 704.48 205.33 693.64 C 194.08 685.31 189.38 670.61 190.01 657.03 C 190.32 635.27 188.95 613.39 190.81 591.71 C 194.94 582.14 204.56 576.21 213.17 571.15 Z" />
<path fill="#1c8b06" opacity="1.00" d=" M 456.38 565.35 C 506.57 564.70 556.79 564.92 606.98 565.18 C 625.15 564.65 639.84 578.62 648.79 593.15 C 662.01 614.80 662.03 641.17 660.75 665.69 C 648.52 666.05 636.28 666.05 624.05 666.01 C 623.34 650.76 626.52 634.00 619.04 619.94 C 616.23 615.84 614.05 609.76 608.59 608.54 C 597.09 607.43 585.52 608.03 574.00 607.97 C 535.01 608.03 496.02 608.01 457.04 607.99 C 457.03 593.77 457.05 579.55 456.38 565.35 Z" />
<path fill="#1c8b06" opacity="1.00" d=" M 406.47 775.21 C 419.36 778.28 431.62 783.36 444.00 787.97 C 443.95 874.66 444.09 961.35 443.95 1048.04 C 444.84 1061.93 432.05 1070.14 425.01 1080.45 C 419.76 1073.88 414.03 1067.71 408.99 1060.99 C 406.42 1057.61 407.56 1052.87 406.99 1049.04 C 406.69 957.76 407.64 866.48 406.47 775.21 Z" />
<path fill="#1c8b06" opacity="1.00" d=" M 184.17 802.37 C 199.45 801.96 214.75 801.63 230.04 802.01 C 233.04 801.52 236.43 802.15 238.59 804.39 C 289.99 862.34 340.90 920.76 392.20 978.82 C 397.65 984.03 395.40 992.30 396.09 998.99 C 395.56 1013.89 397.46 1029.06 394.83 1043.84 C 385.81 1034.24 377.79 1023.77 369.22 1013.79 C 314.97 950.16 258.68 888.32 203.54 825.48 C 197.00 817.85 189.94 810.61 184.17 802.37 Z" />
</g>
</svg>
